<?xml version="1.0" encoding="UTF-8"?>
<svg id="Layer_1" data-name="Layer 1" xmlns="http://www.w3.org/2000/svg" xmlns:xlink="http://www.w3.org/1999/xlink" viewBox="0 0 1215.06 333.71">
  <defs>
    <style>
      .cls-1 {
        fill: url(#linear-gradient-15);
      }

      .cls-2 {
        fill: url(#linear-gradient-13);
      }

      .cls-3 {
        fill: url(#linear-gradient-2);
      }

      .cls-4 {
        fill: url(#linear-gradient-25);
      }

      .cls-5 {
        fill: url(#linear-gradient-10);
      }

      .cls-6 {
        fill: url(#linear-gradient-12);
      }

      .cls-7 {
        fill: url(#linear-gradient-27);
      }

      .cls-8 {
        fill: #fff;
      }

      .cls-9 {
        fill: #1d3052;
      }

      .cls-9, .cls-10, .cls-11 {
        isolation: isolate;
      }

      .cls-12 {
        fill: url(#linear-gradient-26);
      }

      .cls-13 {
        fill: url(#linear-gradient-4);
      }

      .cls-14 {
        fill: url(#radial-gradient);
      }

      .cls-15 {
        fill: url(#linear-gradient-3);
      }

      .cls-16 {
        fill: url(#linear-gradient-5);
      }

      .cls-17 {
        fill: url(#linear-gradient-22);
      }

      .cls-18 {
        fill: url(#linear-gradient-24);
      }

      .cls-11, .cls-19 {
        fill: #1b2f50;
      }

      .cls-20 {
        fill: url(#linear-gradient-8);
      }

      .cls-21 {
        fill: url(#linear-gradient-14);
      }

      .cls-22 {
        fill: url(#linear-gradient-20);
      }

      .cls-23 {
        fill: url(#linear-gradient-17);
      }

      .cls-24 {
        fill: url(#linear-gradient-7);
      }

      .cls-25 {
        fill: url(#linear-gradient-9);
      }

      .cls-26 {
        fill: url(#linear-gradient-11);
      }

      .cls-27 {
        fill: url(#linear-gradient-19);
      }

      .cls-28 {
        fill: url(#linear-gradient-6);
      }

      .cls-29 {
        fill: #001a49;
      }

      .cls-30 {
        fill: url(#linear-gradient-21);
      }

      .cls-31 {
        fill: url(#linear-gradient-16);
      }

      .cls-32 {
        fill: url(#linear-gradient);
      }

      .cls-33 {
        fill: url(#linear-gradient-23);
      }

      .cls-34 {
        fill: url(#linear-gradient-18);
      }
    </style>
    <linearGradient id="linear-gradient" x1="416.3" y1="234.94" x2="416.3" y2="262.72" gradientUnits="userSpaceOnUse">
      <stop offset="0" stop-color="#fcb928"/>
      <stop offset=".38" stop-color="#fcb627"/>
      <stop offset=".65" stop-color="#fcac26"/>
      <stop offset=".88" stop-color="#fc9d23"/>
      <stop offset="1" stop-color="#fc9222"/>
    </linearGradient>
    <linearGradient id="linear-gradient-2" x1="474.79" y1="234.94" x2="474.79" y2="262.72" xlink:href="#linear-gradient"/>
    <linearGradient id="linear-gradient-3" x1="532.95" y1="234.94" x2="532.95" y2="262.72" xlink:href="#linear-gradient"/>
    <linearGradient id="linear-gradient-4" x1="579.2" y1="234.94" x2="579.2" y2="262.72" xlink:href="#linear-gradient"/>
    <linearGradient id="linear-gradient-5" x1="628.46" y1="234.94" x2="628.46" y2="262.72" xlink:href="#linear-gradient"/>
    <linearGradient id="linear-gradient-6" x1="692.99" y1="234.94" x2="692.99" y2="262.72" xlink:href="#linear-gradient"/>
    <linearGradient id="linear-gradient-7" x1="753.57" y1="234.94" x2="753.57" y2="262.72" xlink:href="#linear-gradient"/>
    <linearGradient id="linear-gradient-8" x1="843.78" y1="234.94" x2="843.78" y2="262.72" xlink:href="#linear-gradient"/>
    <linearGradient id="linear-gradient-9" x1="898.22" y1="234.94" x2="898.22" y2="262.72" xlink:href="#linear-gradient"/>
    <linearGradient id="linear-gradient-10" x1="952.67" y1="234.94" x2="952.67" y2="262.72" xlink:href="#linear-gradient"/>
    <linearGradient id="linear-gradient-11" x1="1007.97" y1="234.94" x2="1007.97" y2="262.72" xlink:href="#linear-gradient"/>
    <linearGradient id="linear-gradient-12" x1="1065.57" y1="234.94" x2="1065.57" y2="262.72" xlink:href="#linear-gradient"/>
    <linearGradient id="linear-gradient-13" x1="1132.02" y1="234.94" x2="1132.02" y2="262.72" xlink:href="#linear-gradient"/>
    <linearGradient id="linear-gradient-14" x1="1198.17" y1="234.94" x2="1198.17" y2="262.72" xlink:href="#linear-gradient"/>
    <radialGradient id="radial-gradient" cx="162.48" cy="166.31" fx="162.48" fy="166.31" r="55.61" gradientUnits="userSpaceOnUse">
      <stop offset="0" stop-color="#fcb928"/>
      <stop offset=".38" stop-color="#fcb627"/>
      <stop offset=".65" stop-color="#fcac26"/>
      <stop offset=".88" stop-color="#fc9d23"/>
      <stop offset="1" stop-color="#fc9222"/>
    </radialGradient>
    <linearGradient id="linear-gradient-15" x1="166.86" y1="6.68" x2="166.86" y2="80.85" gradientUnits="userSpaceOnUse">
      <stop offset="0" stop-color="#f69b3d"/>
      <stop offset=".14" stop-color="#f6a24a"/>
      <stop offset=".38" stop-color="#f8b56e"/>
      <stop offset=".71" stop-color="#fad5a7"/>
      <stop offset="1" stop-color="#fdf4e0"/>
    </linearGradient>
    <linearGradient id="linear-gradient-16" x1="205.91" y1="24.95" x2="188.63" y2="84.04" xlink:href="#linear-gradient-15"/>
    <linearGradient id="linear-gradient-17" x1="244.31" y1="26.49" x2="208.45" y2="93.2" xlink:href="#linear-gradient-15"/>
    <linearGradient id="linear-gradient-18" x1="265.51" y1="57.72" x2="225.33" y2="104.47" xlink:href="#linear-gradient-15"/>
    <linearGradient id="linear-gradient-19" x1="301.56" y1="74.75" x2="240.79" y2="118.2" xlink:href="#linear-gradient-15"/>
    <linearGradient id="linear-gradient-20" x1="302.88" y1="117.75" x2="247.52" y2="139" xlink:href="#linear-gradient-15"/>
    <linearGradient id="linear-gradient-21" x1="327.19" y1="149.05" x2="252.6" y2="158.74" xlink:href="#linear-gradient-15"/>
    <linearGradient id="linear-gradient-22" x1="127.68" y1="26.3" x2="145.46" y2="83.64" xlink:href="#linear-gradient-15"/>
    <linearGradient id="linear-gradient-23" x1="88.94" y1="27.28" x2="124.79" y2="90.65" xlink:href="#linear-gradient-15"/>
    <linearGradient id="linear-gradient-24" x1="67.55" y1="57.98" x2="109.04" y2="105.24" xlink:href="#linear-gradient-15"/>
    <linearGradient id="linear-gradient-25" x1="34.24" y1="75.71" x2="95.06" y2="120.25" xlink:href="#linear-gradient-15"/>
    <linearGradient id="linear-gradient-26" x1="29.82" y1="117.21" x2="85.43" y2="138.71" xlink:href="#linear-gradient-15"/>
    <linearGradient id="linear-gradient-27" x1="6.51" y1="148.96" x2="81.63" y2="158.9" xlink:href="#linear-gradient-15"/>
  </defs>
  <g>
    <g class="cls-10">
      <g>
        <path class="cls-19" d="M428.99,161.26c0,1.61.47,3.19,1.41,4.73.94,1.55,2.35,2.96,4.23,4.23,1.88,1.28,4.16,2.32,6.85,3.12,2.68.81,5.71,1.21,9.07,1.21,2.55,0,5.1-.3,7.66-.91,2.55-.6,4.87-1.44,6.95-2.52,2.08-1.07,3.76-2.42,5.04-4.03,1.27-1.61,1.91-3.49,1.91-5.64,0-3.76-1.78-6.61-5.34-8.56-3.56-1.95-7.99-3.59-13.3-4.94-5.31-1.34-11.05-2.65-17.22-3.93-6.18-1.27-11.92-3.15-17.22-5.64-5.31-2.48-9.74-5.91-13.3-10.27-3.56-4.36-5.34-10.17-5.34-17.43,0-5.24,1.34-10.04,4.03-14.4,2.69-4.36,6.31-8.12,10.88-11.28,4.56-3.15,9.9-5.61,16.02-7.35,6.11-1.74,12.52-2.62,19.24-2.62s13.53.94,19.64,2.82c6.11,1.88,11.45,4.5,16.02,7.86,4.56,3.36,8.16,7.32,10.78,11.89,2.62,4.57,3.93,9.47,3.93,14.71h-29.82c0-3.09-1.81-5.87-5.44-8.36-3.63-2.48-8.66-3.73-15.11-3.73-2.55,0-5.04.27-7.45.81-2.42.54-4.6,1.31-6.55,2.32-1.95,1.01-3.49,2.25-4.63,3.73-1.14,1.48-1.71,3.16-1.71,5.04,0,3.76,1.78,6.58,5.34,8.46,3.56,1.88,7.99,3.49,13.3,4.84,5.3,1.34,11.05,2.65,17.22,3.93,6.18,1.28,11.92,3.19,17.22,5.74,5.3,2.55,9.74,5.98,13.3,10.27,3.56,4.3,5.34,10.14,5.34,17.53,0,5.91-1.55,11.15-4.63,15.71-3.09,4.57-7.12,8.43-12.09,11.58-4.97,3.16-10.51,5.54-16.62,7.15-6.11,1.61-12.12,2.42-18.03,2.42-6.98,0-13.6-.97-19.84-2.92-6.25-1.95-11.68-4.63-16.32-8.06-4.63-3.43-8.29-7.49-10.98-12.19-2.69-4.7-4.03-9.8-4.03-15.31h29.61Z"/>
        <path class="cls-19" d="M556.92,201.35c-6.31,0-11.89-1.11-16.72-3.32-4.84-2.22-8.86-5.17-12.09-8.86-3.22-3.69-5.68-7.99-7.35-12.89-1.68-4.9-2.52-10.04-2.52-15.41v-51.77h27.6v53.39c0,4.43,1.38,8.29,4.13,11.58,2.75,3.29,6.68,4.94,11.79,4.94,3.76,0,6.95-.71,9.57-2.12,2.62-1.41,4.73-3.09,6.35-5.04,1.61-1.95,2.79-3.96,3.53-6.04.74-2.08,1.11-3.73,1.11-4.94v-51.77h27.4v90.65h-27.4v-8.66c-3.09,3.09-6.78,5.57-11.08,7.45-4.3,1.88-9.07,2.82-14.3,2.82Z"/>
        <path class="cls-19" d="M632.26,109.08h27.4v8.66c3.09-3.09,6.78-5.57,11.08-7.45,4.3-1.88,9.07-2.82,14.3-2.82,6.31,0,11.89,1.11,16.72,3.32,4.83,2.22,8.86,5.17,12.09,8.86,3.22,3.7,5.67,7.99,7.35,12.89,1.68,4.9,2.52,10.04,2.52,15.41v51.77h-27.6v-53.39c0-4.84-1.48-8.83-4.43-11.99-2.96-3.15-6.78-4.73-11.48-4.73-3.9,0-7.15.74-9.77,2.22-2.62,1.48-4.73,3.22-6.35,5.24-1.61,2.01-2.75,4.06-3.42,6.14-.67,2.08-1.01,3.66-1.01,4.73v51.77h-27.4v-90.65Z"/>
      </g>
      <g>
        <path class="cls-19" d="M848.21,199.73v-124.7h63.26c5.91,0,11.51,1.01,16.82,3.02,5.3,2.01,9.97,4.77,14,8.26,4.03,3.49,7.25,7.66,9.67,12.49,2.42,4.84,3.63,10.07,3.63,15.71s-1.21,10.68-3.63,15.51c-2.42,4.83-5.64,9.03-9.67,12.59-4.03,3.56-8.7,6.35-14,8.36-5.31,2.01-10.91,3.02-16.82,3.02h-33.44v45.73h-29.82ZM878.03,100.22v28.61h33.44c3.89,0,7.25-1.38,10.07-4.13,2.82-2.75,4.23-6.14,4.23-10.17,0-3.63-1.31-6.92-3.93-9.87-2.62-2.95-6.08-4.43-10.38-4.43h-33.44Z"/>
        <path class="cls-19" d="M1007.56,201.35c-6.98,0-13.6-1.24-19.84-3.73-6.25-2.48-11.72-5.84-16.42-10.07-4.7-4.23-8.39-9.2-11.08-14.91-2.69-5.71-4.03-11.78-4.03-18.23s1.34-12.52,4.03-18.23c2.69-5.71,6.35-10.68,10.98-14.91,4.63-4.23,10.07-7.59,16.32-10.07,6.25-2.48,12.92-3.73,20.05-3.73s13.8,1.24,20.04,3.73c6.25,2.49,11.68,5.84,16.32,10.07,4.63,4.23,8.29,9.2,10.98,14.91,2.69,5.71,4.03,11.78,4.03,18.23s-1.34,12.52-4.03,18.23c-2.69,5.71-6.35,10.68-10.98,14.91-4.63,4.23-10.07,7.59-16.32,10.07-6.25,2.48-12.93,3.73-20.04,3.73ZM1007.56,129.83c-3.22,0-6.28.64-9.17,1.91-2.89,1.28-5.41,3.02-7.55,5.24-2.15,2.22-3.86,4.84-5.14,7.86-1.28,3.02-1.91,6.21-1.91,9.57s.64,6.55,1.91,9.57c1.27,3.02,2.99,5.64,5.14,7.86,2.15,2.22,4.66,3.96,7.55,5.24,2.89,1.28,5.94,1.91,9.17,1.91s6.48-.64,9.37-1.91c2.89-1.27,5.4-3.02,7.55-5.24,2.15-2.22,3.86-4.84,5.14-7.86,1.27-3.02,1.91-6.21,1.91-9.57,0-3.63-.67-6.92-2.01-9.87-1.34-2.95-3.12-5.54-5.34-7.76-2.22-2.22-4.77-3.93-7.66-5.14-2.89-1.21-5.88-1.81-8.96-1.81Z"/>
        <path class="cls-19" d="M1073.64,199.73v-90.65h27.4v11.48c2.95-4.16,6.95-7.15,11.99-8.96,5.04-1.81,9.97-2.72,14.81-2.72,6.31,0,11.21,1.21,14.71,3.63l-13.5,24.78c-2.55-1.34-5.24-2.01-8.06-2.01-2.55,0-5,.5-7.35,1.51-2.35,1.01-4.47,2.35-6.35,4.03-1.88,1.68-3.39,3.7-4.53,6.04-1.14,2.35-1.71,4.87-1.71,7.55v45.33h-27.4Z"/>
        <path class="cls-19" d="M1149.39,129.43v-20.35h11.68v-26.79h27.6v26.79h24.58v20.35h-24.58v31.23c0,4.7,1.34,8.23,4.03,10.58,2.68,2.35,5.97,3.53,9.87,3.53,1.48,0,2.82-.1,4.03-.3,1.21-.2,1.88-.37,2.01-.5l6.45,23.77c-.14,0-.64.1-1.51.3-.88.2-1.98.44-3.32.71-1.34.27-2.82.5-4.43.71-1.61.2-3.22.3-4.83.3-12.63,0-22.4-3.25-29.31-9.77-6.92-6.51-10.44-16.08-10.58-28.71v-31.83h-11.68Z"/>
      </g>
      <path class="cls-11" d="M739.57,180.08c-2.13-9.41-.17-18.55,1.77-27.72,2.4,7.53,5.88,14.24,13.49,18.15-1.5.23-2.79.15-4.05.41-3.06.64-3.15.86-1.28,3.31,4.72,6.2,11.14,9.72,18.53,11.66,1.5.39,3.02.72,4.56.95,3,.45,5.59-1.76,5.73-4.8.91-20.04,1.4-40.09,2-60.14.19-6.18.37-12.35.6-18.53.04-.94-.2-1.29-1.18-1.43-5.65-.82-11.29-1.71-16.92-2.61-.6-.1-.95-.02-1.35.52-1.07,1.47-2.81,1.93-4.44,1.31-1.53-.58-2.51-2.07-2.45-3.73.06-1.66,1.13-3.04,2.73-3.52,1.61-.49,3.31.08,4.27,1.55.35.54.69.69,1.31.63,5.71-.59,11.43-1.16,17.15-1.69.86-.08,1.16-.34,1.17-1.22.02-2.53.11-5.06.22-7.59.03-.72-.17-1.17-.77-1.62-4.51-3.39-5.08-9.78-1.28-13.97,3.64-4.01,10.12-4.05,13.82-.09,3.85,4.12,3.36,10.51-1.1,13.99-.51.39-.73.76-.7,1.43.12,2.63.2,5.27.22,7.91,0,.86.34,1.08,1.13,1.15,5.68.53,11.36,1.1,17.04,1.68.57.06.9-.05,1.24-.56,1.02-1.54,2.69-2.12,4.33-1.61,1.6.49,2.66,1.88,2.71,3.54.05,1.67-.93,3.13-2.48,3.71-1.63.61-3.34.13-4.43-1.34-.36-.48-.66-.6-1.24-.51-5.71.91-11.42,1.8-17.14,2.64-.9.13-.89.6-.87,1.25.19,6.86.37,13.73.56,20.59.35,12.64.68,25.29,1.07,37.93.21,6.79.53,13.58.81,20.37.12,2.8,2.56,5.18,5.24,4.78,9.41-1.41,17.71-4.98,23.67-12.8.33-.43.59-.91.95-1.32.63-.71.28-1.02-.42-1.29-1.37-.53-2.78-.77-4.23-.83-.49-.02-.99-.06-1.81-.1,7.67-3.94,11.16-10.64,13.57-18.17,1.97,9.15,3.89,18.28,1.78,27.69-.46-1.49-.98-2.93-2.03-4.1-.95-1.06-.99-1.07-1.69.13-3.62,6.18-8.85,10.69-14.85,14.44-5.11,3.2-10.27,6.33-14.96,10.17-4.72,3.86-8.93,8.21-12.75,12.96-.25.31-.39.78-.9.13-7.17-9.25-16.2-16.31-26.19-22.26-4.42-2.63-8.61-5.58-12.07-9.46-1.71-1.92-3.25-3.98-4.5-6.22-.46-.82-.77-.7-1.32-.15-1.21,1.23-1.79,2.77-2.28,4.38Z"/>
    </g>
    <g>
      <path class="cls-32" d="M399.38,237.17h33.84v8.29h-24.02v8.36h21.37v7.76h-21.37v16.65h-9.82v-41.07Z"/>
      <path class="cls-3" d="M457.11,278.24v-41.07h20.84c2.12,0,4.08.29,5.87.86,1.79.58,3.33,1.41,4.61,2.49,1.28,1.09,2.28,2.43,2.99,4.05.71,1.62,1.06,3.48,1.06,5.61,0,1.68-.25,3.2-.76,4.55-.51,1.35-1.21,2.52-2.09,3.52-.89.99-1.94,1.82-3.15,2.49-1.22.66-2.53,1.13-3.95,1.39l9.95,16.12h-11.28l-9.49-15.59h-4.78v15.59h-9.82ZM466.93,254.89h11.01c1.33,0,2.44-.46,3.35-1.39.91-.93,1.36-2.03,1.36-3.32s-.43-2.33-1.29-3.28c-.86-.95-2-1.43-3.42-1.43h-11.01v9.42Z"/>
      <path class="cls-15" d="M516.69,237.17h32.51v8.29h-22.69v8.29h18.51v7.83h-18.51v8.36h22.69v8.29h-32.51v-41.07Z"/>
      <path class="cls-13" d="M574.29,278.24v-41.14h9.82v41.14h-9.82Z"/>
      <path class="cls-16" d="M630.16,278.24c-2.83,0-5.57-.52-8.23-1.56-2.65-1.04-4.99-2.47-7-4.28-2.01-1.81-3.63-3.98-4.84-6.5-1.22-2.52-1.82-5.24-1.82-8.16s.6-5.76,1.79-8.26,2.81-4.67,4.84-6.5c2.03-1.84,4.37-3.26,7-4.28,2.63-1.02,5.38-1.53,8.26-1.53,1.15,0,2.48.12,3.98.37,1.5.24,3.07.7,4.71,1.36,1.64.66,3.28,1.6,4.94,2.82,1.66,1.22,3.2,2.8,4.61,4.74l-7.96,4.84c-1.28-2.08-2.86-3.57-4.74-4.48-1.88-.91-3.73-1.36-5.54-1.36-1.59,0-3.12.31-4.58.93-1.46.62-2.75,1.47-3.88,2.55-1.13,1.08-2.02,2.38-2.69,3.88-.66,1.5-1,3.14-1,4.91s.33,3.41,1,4.91c.66,1.5,1.56,2.8,2.69,3.88,1.13,1.08,2.42,1.92,3.88,2.52,1.46.6,2.99.9,4.58.9,2.03,0,3.82-.44,5.34-1.33,1.53-.88,2.64-1.83,3.35-2.85v-4.18h-10.82v-7.83h20.57l.07,14.86c-1.06,1.55-2.29,2.92-3.68,4.11-1.39,1.19-2.9,2.2-4.51,3.02-1.62.82-3.3,1.44-5.04,1.86-1.75.42-3.51.63-5.28.63Z"/>
      <path class="cls-28" d="M683.57,237.17v16.59h18.91v-16.59h9.75v41.07h-9.75v-16.65h-18.91v16.65h-9.82v-41.07h9.82Z"/>
      <path class="cls-24" d="M771.16,237.17v8.29h-12.67v32.78h-9.75v-32.78h-12.74v-8.29h35.17Z"/>
      <path class="cls-20" d="M836.65,265.57c0,.53.15,1.05.46,1.56.31.51.77.97,1.39,1.39.62.42,1.37.76,2.26,1.03.88.27,1.88.4,2.99.4.84,0,1.68-.1,2.52-.3.84-.2,1.6-.48,2.29-.83.69-.35,1.24-.8,1.66-1.33.42-.53.63-1.15.63-1.86,0-1.24-.59-2.18-1.76-2.82-1.17-.64-2.63-1.18-4.38-1.63-1.75-.44-3.64-.87-5.67-1.29-2.04-.42-3.93-1.04-5.67-1.86-1.75-.82-3.21-1.95-4.38-3.38-1.17-1.44-1.76-3.35-1.76-5.74,0-1.73.44-3.31,1.33-4.74.88-1.44,2.08-2.68,3.58-3.72,1.5-1.04,3.26-1.85,5.28-2.42,2.01-.57,4.12-.86,6.34-.86s4.46.31,6.47.93c2.01.62,3.77,1.48,5.28,2.59,1.5,1.11,2.69,2.41,3.55,3.91.86,1.5,1.29,3.12,1.29,4.84h-9.82c0-1.02-.6-1.93-1.79-2.75-1.19-.82-2.85-1.23-4.98-1.23-.84,0-1.66.09-2.46.26-.8.18-1.52.43-2.16.76-.64.33-1.15.74-1.53,1.23-.38.49-.56,1.04-.56,1.66,0,1.24.59,2.17,1.76,2.79,1.17.62,2.63,1.15,4.38,1.59,1.75.44,3.64.87,5.67,1.29,2.03.42,3.93,1.05,5.67,1.89,1.75.84,3.21,1.97,4.38,3.38,1.17,1.42,1.76,3.34,1.76,5.77,0,1.95-.51,3.67-1.53,5.18-1.02,1.5-2.35,2.78-3.98,3.82-1.64,1.04-3.46,1.82-5.47,2.36-2.01.53-3.99.8-5.94.8-2.3,0-4.48-.32-6.54-.96-2.06-.64-3.85-1.53-5.37-2.65-1.53-1.13-2.73-2.47-3.62-4.02-.89-1.55-1.33-3.23-1.33-5.04h9.75Z"/>
      <path class="cls-25" d="M878.98,237.17h10.62l8.63,16.59,8.56-16.59h10.68l-14.33,25.81v15.26h-9.82v-15.26l-14.33-25.81Z"/>
      <path class="cls-5" d="M945.53,265.57c0,.53.15,1.05.46,1.56.31.51.77.97,1.39,1.39.62.42,1.37.76,2.26,1.03.88.27,1.88.4,2.99.4.84,0,1.68-.1,2.52-.3.84-.2,1.6-.48,2.29-.83.69-.35,1.24-.8,1.66-1.33.42-.53.63-1.15.63-1.86,0-1.24-.59-2.18-1.76-2.82-1.17-.64-2.63-1.18-4.38-1.63-1.75-.44-3.64-.87-5.67-1.29-2.04-.42-3.93-1.04-5.67-1.86-1.75-.82-3.21-1.95-4.38-3.38-1.17-1.44-1.76-3.35-1.76-5.74,0-1.73.44-3.31,1.33-4.74.88-1.44,2.08-2.68,3.58-3.72,1.5-1.04,3.26-1.85,5.28-2.42,2.01-.57,4.12-.86,6.34-.86s4.46.31,6.47.93c2.01.62,3.77,1.48,5.28,2.59,1.5,1.11,2.69,2.41,3.55,3.91.86,1.5,1.29,3.12,1.29,4.84h-9.82c0-1.02-.6-1.93-1.79-2.75-1.19-.82-2.85-1.23-4.98-1.23-.84,0-1.66.09-2.46.26-.8.18-1.52.43-2.16.76-.64.33-1.15.74-1.53,1.23-.38.49-.56,1.04-.56,1.66,0,1.24.59,2.17,1.76,2.79,1.17.62,2.63,1.15,4.38,1.59,1.75.44,3.64.87,5.67,1.29,2.03.42,3.93,1.05,5.67,1.89,1.75.84,3.21,1.97,4.38,3.38,1.17,1.42,1.76,3.34,1.76,5.77,0,1.95-.51,3.67-1.53,5.18-1.02,1.5-2.35,2.78-3.98,3.82-1.64,1.04-3.46,1.82-5.47,2.36-2.01.53-3.99.8-5.94.8-2.3,0-4.48-.32-6.54-.96-2.06-.64-3.85-1.53-5.37-2.65-1.53-1.13-2.73-2.47-3.62-4.02-.89-1.55-1.33-3.23-1.33-5.04h9.75Z"/>
      <path class="cls-26" d="M1025.56,237.17v8.29h-12.67v32.78h-9.75v-32.78h-12.74v-8.29h35.17Z"/>
      <path class="cls-6" d="M1049.31,237.17h32.51v8.29h-22.69v8.29h18.51v7.83h-18.51v8.36h22.69v8.29h-32.51v-41.07Z"/>
      <path class="cls-2" d="M1106.9,237.1h10.82l14.27,29.53,14.33-29.53h10.82v41.14h-9.55v-26.41l-12.01,26.41h-7.1l-12.01-26.41v26.41h-9.56v-41.14Z"/>
      <path class="cls-21" d="M1191.04,265.57c0,.53.15,1.05.46,1.56.31.51.77.97,1.39,1.39.62.42,1.37.76,2.26,1.03.88.27,1.88.4,2.99.4.84,0,1.68-.1,2.52-.3.84-.2,1.6-.48,2.29-.83.69-.35,1.24-.8,1.66-1.33.42-.53.63-1.15.63-1.86,0-1.24-.59-2.18-1.76-2.82-1.17-.64-2.63-1.18-4.38-1.63-1.75-.44-3.64-.87-5.67-1.29-2.04-.42-3.93-1.04-5.67-1.86-1.75-.82-3.21-1.95-4.38-3.38-1.17-1.44-1.76-3.35-1.76-5.74,0-1.73.44-3.31,1.33-4.74.88-1.44,2.08-2.68,3.58-3.72,1.5-1.04,3.26-1.85,5.28-2.42,2.01-.57,4.12-.86,6.34-.86s4.46.31,6.47.93c2.01.62,3.77,1.48,5.28,2.59,1.5,1.11,2.69,2.41,3.55,3.91.86,1.5,1.29,3.12,1.29,4.84h-9.82c0-1.02-.6-1.93-1.79-2.75-1.19-.82-2.85-1.23-4.98-1.23-.84,0-1.66.09-2.46.26-.8.18-1.52.43-2.16.76-.64.33-1.15.74-1.53,1.23-.38.49-.56,1.04-.56,1.66,0,1.24.59,2.17,1.76,2.79,1.17.62,2.63,1.15,4.38,1.59,1.75.44,3.64.87,5.67,1.29,2.03.42,3.93,1.05,5.67,1.89,1.75.84,3.21,1.97,4.38,3.38,1.17,1.42,1.76,3.34,1.76,5.77,0,1.95-.51,3.67-1.53,5.18-1.02,1.5-2.35,2.78-3.98,3.82-1.64,1.04-3.46,1.82-5.47,2.36-2.01.53-3.99.8-5.94.8-2.3,0-4.48-.32-6.54-.96-2.06-.64-3.85-1.53-5.37-2.65-1.53-1.13-2.73-2.47-3.62-4.02-.89-1.55-1.33-3.23-1.33-5.04h9.75Z"/>
    </g>
  </g>
  <g>
    <path class="cls-11" d="M333.71,166.86c0,8.35-.61,16.56-1.8,24.58h0c-.35,2.4-.75,4.77-1.21,7.13-.59,3.08-1.27,6.13-2.03,9.14h0c-.61,2.44-1.27,4.85-2,7.24-.94,3.12-1.96,6.19-3.07,9.23-.9,2.44-1.84,4.85-2.85,7.24-1.3,3.11-2.7,6.17-4.19,9.18-1.18,2.4-2.42,4.76-3.72,7.09-1.69,3.05-3.48,6.05-5.36,8.98-1.5,2.34-3.05,4.64-4.67,6.9-2.09,2.93-4.27,5.79-6.54,8.58-1.8,2.21-3.66,4.38-5.58,6.5-2.6,2.88-5.3,5.68-8.11,8.37-2.45,2.36-4.98,4.65-7.57,6.86h-.27c-4.84,0-8.28.14-11.12.33-2.84.19-5.1.45-7.63.7-1.6.15-3.3.31-5.27.43.18.39.36.78.54,1.17h-49.91c-.15-.87-.31-1.73-.48-2.59-.23-1.16-.48-2.31-.73-3.46l-.76-3.52-.97-4.52-1.47,4.6-1.03,3.23c-.41,1.29-.89,2.61-1.5,3.91-.37.79-.79,1.58-1.28,2.33h-19.15c0-.3-.02-.6-.03-.91-.07-2.33-.14-4.67-.2-7-.09-3.01-.17-6-.25-8.96-.02-.59-.03-1.18-.05-1.77,0,0-.07-2.44-.14-5.23-.09-3.1-.18-6.63-.21-7.71-.01-.42-.02-.84-.03-1.26-.05-1.9-.11-3.81-.16-5.71,3.48-.52,6.9-1.05,9.9-1.53.9.88,2.08,1.37,3.33,1.37.58,0,1.16-.11,1.72-.32,1.02-.38,1.85-1.08,2.39-1.96.5-.8.77-1.74.75-2.73-.06-2.1-1.4-3.86-3.42-4.48-.48-.15-.97-.22-1.46-.22-1.35,0-2.6.56-3.51,1.57-3.87-.4-7.02-.71-9.97-.99,0-.32,0-.65-.02-.98-.02-.9-.05-1.83-.1-2.82.72-.63,1.32-1.36,1.8-2.16.39-.65.69-1.34.9-2.07.15-.55.26-1.12.3-1.69.19-2.43-.67-4.87-2.36-6.68-.18-.19-.37-.38-.57-.55-1.57-1.39-3.64-2.18-5.79-2.18s-4.04.72-5.58,2c-.31.25-.6.52-.86.82-1.68,1.85-2.5,4.31-2.27,6.75.04.41.11.81.21,1.21.21.86.54,1.68,1,2.43.5.83,1.14,1.59,1.9,2.22-.04.79-.07,1.64-.09,2.53,0,.38-.02.76-.03,1.15-3.59.34-7.05.68-10.07.99-.9-.99-2.18-1.57-3.53-1.57-.48,0-.96.07-1.42.21-2.02.61-3.37,2.36-3.44,4.46-.03.82.14,1.61.49,2.31.53,1.08,1.45,1.96,2.63,2.4.57.22,1.16.33,1.76.33,1.26,0,2.43-.49,3.33-1.37,3.52.56,6.76,1.07,10.02,1.55-.07,1.82-.13,3.66-.19,5.49-.06,1.92-.12,3.82-.18,5.7l-.02.57c-.03.89-.05,1.79-.08,2.68-.07,2.18-.13,4.35-.19,6.53,0,.16,0,.32-.01.48-.09,2.95-.17,5.94-.27,8.94-.07,2.33-.14,4.67-.22,7-.01.39-.03.77-.04,1.15h-19.13c-.5-.78-.97-1.64-1.4-2.59-.5-1.1-.97-2.32-1.4-3.67l-1.07-3.36-1.44-4.53-.96,4.53-.78,3.67c-.24,1.11-.47,2.22-.69,3.34-.18.87-.34,1.74-.48,2.61h-49.29c.25-.55.5-1.1.76-1.65-.96-.1-1.9-.19-2.85-.28-1.64-.16-3.32-.31-5.31-.43-2.65-.16-5.84-.27-10.14-.27-2.6,0-4.79.04-6.7.1-2.49-2.12-4.92-4.31-7.29-6.58-2.76-2.64-5.43-5.37-8-8.19-1.99-2.18-3.91-4.4-5.77-6.68-2.36-2.87-4.62-5.83-6.78-8.85-1.65-2.31-3.23-4.66-4.77-7.05-1.91-2.99-3.73-6.05-5.46-9.17-1.33-2.39-2.59-4.82-3.79-7.29-1.51-3.06-2.91-6.18-4.23-9.34-1-2.41-1.95-4.84-2.84-7.3-1.09-3.02-2.1-6.08-3.02-9.19-.7-2.35-1.34-4.73-1.94-7.13h0c-.74-2.99-1.4-6-1.98-9.05-.45-2.33-.84-4.68-1.18-7.05h0c-1.16-7.93-1.76-16.03-1.76-24.27C0,74.7,74.7,0,166.86,0s166.86,74.7,166.86,166.86Z"/>
    <g>
      <path class="cls-8" d="M331.91,191.44c-.35,2.39-.75,4.77-1.21,7.13-1.77.15-3.38.33-5.12.5-1.68.16-3.47.32-5.57.45-2.8.17-6.15.28-10.57.28-4.97,0-8.59-.14-11.59-.35s-5.38-.47-7.83-.71c-1.64-.16-3.33-.31-5.31-.43-2.65-.16-5.84-.27-10.14-.27-4.84,0-8.28.14-11.12.33-2.84.19-5.1.45-7.63.7-1.68.16-3.47.32-5.57.45-2.8.17-6.15.28-10.57.28-4.97,0-8.59-.14-11.59-.35-3.01-.21-5.38-.47-7.83-.71-1.64-.16-3.33-.31-5.31-.43-2.65-.16-5.84-.27-10.14-.27-4.84,0-8.28.14-11.11.33-2.84.19-5.11.45-7.63.7-1.68.16-3.47.32-5.57.45-2.8.17-6.14.28-10.57.28-4.97,0-8.59-.14-11.59-.35-3.01-.21-5.38-.47-7.83-.71-1.64-.16-3.33-.31-5.31-.43-2.65-.16-5.84-.27-10.14-.27-4.84,0-8.28.14-11.11.33-2.84.19-5.11.45-7.63.7-1.68.16-3.47.32-5.57.45-2.8.17-6.14.28-10.57.28-4.97,0-8.58-.14-11.59-.35-3.01-.21-5.37-.47-7.83-.71-1.64-.16-3.32-.31-5.31-.43-2.65-.16-5.84-.27-10.14-.27-4.84,0-8.28.14-11.12.33s-5.1.45-7.63.7c-1.68.16-3.47.32-5.57.45-2.8.17-6.15.28-10.57.28-4.97,0-8.59-.14-11.59-.35-3-.21-5.37-.47-7.83-.71-1.64-.16-3.33-.31-5.31-.43-.84-.05-1.75-.1-2.72-.14-.45-2.33-.84-4.68-1.18-7.05,2.03.06,3.77.15,5.35.26,3.01.21,5.38.47,7.83.71,1.64.16,3.33.31,5.31.43,2.65.16,5.84.27,10.14.27,4.84,0,8.28-.14,11.11-.33,2.84-.19,5.11-.45,7.63-.7,1.68-.16,3.47-.32,5.57-.45,2.8-.17,6.14-.28,10.57-.28,4.97,0,8.58.14,11.59.35s5.37.47,7.83.71c1.64.16,3.33.31,5.31.43,2.65.16,5.84.27,10.14.27,4.84,0,8.28-.14,11.12-.33,2.84-.19,5.1-.45,7.63-.7,1.68-.16,3.47-.32,5.57-.45,2.8-.17,6.15-.28,10.57-.28,4.97,0,8.59.14,11.59.35,3,.21,5.37.47,7.83.71,1.64.16,3.33.31,5.31.43,2.65.16,5.84.27,10.14.27,4.84,0,8.28-.14,11.12-.33,2.84-.19,5.1-.45,7.63-.7,1.68-.16,3.47-.32,5.57-.45,2.8-.17,6.15-.28,10.57-.28,4.97,0,8.59.14,11.59.35,3.01.21,5.38.47,7.83.71,1.64.16,3.33.31,5.31.43,2.65.16,5.84.27,10.14.27,4.84,0,8.28-.14,11.12-.33,2.84-.19,5.1-.45,7.63-.7,1.68-.16,3.47-.32,5.57-.45,2.8-.17,6.15-.28,10.57-.28,4.97,0,8.59.14,11.59.35,3,.21,5.37.47,7.83.71,1.64.16,3.33.31,5.31.43,2.65.16,5.84.27,10.15.27,4.84,0,8.27-.14,11.11-.33,2.84-.19,5.11-.45,7.63-.7,1.16-.11,2.38-.22,3.72-.32Z"/>
      <path class="cls-8" d="M328.67,207.71c-.61,2.44-1.27,4.85-2,7.24-.29.03-.58.06-.88.09-1.68.16-3.47.32-5.57.45-2.8.17-6.15.28-10.57.28-4.97,0-8.59-.14-11.59-.35-3.01-.21-5.38-.47-7.83-.71-1.64-.16-3.33-.31-5.31-.43-2.65-.16-5.84-.27-10.14-.27-4.84,0-8.28.14-11.12.33-2.84.19-5.1.45-7.63.7-1.68.16-3.47.32-5.57.45-2.8.17-6.15.28-10.57.28-4.97,0-8.59-.14-11.59-.35-3.01-.21-5.38-.47-7.83-.71-1.64-.16-3.33-.31-5.31-.43-2.65-.16-5.84-.27-10.14-.27-4.84,0-8.28.14-11.11.33-2.84.19-5.11.45-7.63.7-1.68.16-3.47.32-5.57.45-2.8.17-6.14.28-10.57.28-4.97,0-8.59-.14-11.59-.35-3.01-.21-5.38-.47-7.83-.71-1.64-.16-3.33-.31-5.31-.43-2.65-.16-5.84-.27-10.14-.27-4.84,0-8.28.14-11.11.33-2.84.19-5.11.45-7.63.7-1.68.16-3.47.32-5.57.45-2.8.17-6.14.28-10.57.28-4.97,0-8.58-.14-11.59-.35-3.01-.21-5.37-.47-7.83-.71-1.64-.16-3.32-.31-5.31-.43-2.65-.16-5.84-.27-10.14-.27-4.84,0-8.28.14-11.12.33s-5.1.45-7.63.7c-1.68.16-3.47.32-5.57.45-2.8.17-6.15.28-10.57.28-4.97,0-8.59-.14-11.59-.35-3-.21-5.37-.47-7.83-.71-1.37-.14-2.76-.26-4.34-.37-.7-2.35-1.34-4.73-1.94-7.13.85.04,1.65.09,2.41.14,3.01.21,5.38.47,7.83.71,1.64.16,3.33.31,5.31.43,2.65.16,5.84.27,10.14.27,4.84,0,8.28-.14,11.11-.33,2.84-.19,5.11-.45,7.63-.7,1.68-.16,3.47-.32,5.57-.45,2.8-.17,6.14-.28,10.57-.28,4.97,0,8.58.14,11.59.35s5.37.47,7.83.71c1.64.16,3.33.31,5.31.43,2.65.16,5.84.27,10.14.27,4.84,0,8.28-.14,11.12-.33,2.84-.19,5.1-.45,7.63-.7,1.68-.16,3.47-.32,5.57-.45,2.8-.17,6.15-.28,10.57-.28,4.97,0,8.59.14,11.59.35,3,.21,5.37.47,7.83.71,1.64.16,3.33.31,5.31.43,2.65.16,5.84.27,10.14.27,4.84,0,8.28-.14,11.12-.33,2.84-.19,5.1-.45,7.63-.7,1.68-.16,3.47-.32,5.57-.45,2.8-.17,6.15-.28,10.57-.28,4.97,0,8.59.14,11.59.35,3.01.21,5.38.47,7.83.71,1.64.16,3.33.31,5.31.43,2.65.16,5.84.27,10.14.27,4.84,0,8.28-.14,11.12-.33,2.84-.19,5.1-.45,7.63-.7,1.68-.16,3.47-.32,5.57-.45,2.8-.17,6.15-.28,10.57-.28,4.97,0,8.59.14,11.59.35,3,.21,5.37.47,7.83.71,1.64.16,3.33.31,5.31.43,2.65.16,5.84.27,10.15.27,4.84,0,8.27-.14,11.11-.33,2.84-.19,5.11-.45,7.63-.7.09,0,.18-.02.26-.03Z"/>
      <path class="cls-8" d="M323.61,224.18c-.9,2.44-1.84,4.85-2.85,7.24-.18.01-.35.03-.53.04-2.8.17-6.15.28-10.57.28-4.97,0-8.59-.14-11.59-.35-3.01-.21-5.38-.47-7.83-.71-1.64-.16-3.33-.31-5.31-.43-2.65-.16-5.84-.27-10.14-.27-4.84,0-8.28.14-11.12.33-2.84.19-5.1.45-7.63.7-1.68.16-3.47.32-5.57.45-2.8.17-6.15.28-10.57.28-4.97,0-8.59-.14-11.59-.35-3.01-.21-5.38-.47-7.83-.71-1.64-.16-3.33-.31-5.31-.43-1.74-.11-3.72-.19-6.08-.23-1.24-.02-2.59-.03-4.06-.03-2.97,0-5.41.05-7.5.14-1.33.05-2.51.12-3.61.19-2.84.19-5.11.45-7.63.7-1.68.16-3.47.32-5.57.45-2.25.14-4.84.24-8.05.27-1.57-1.39-3.64-2.18-5.79-2.18s-4.04.72-5.58,2c-.97-.04-1.88-.1-2.74-.16-3.01-.21-5.38-.47-7.83-.71-1.64-.16-3.33-.31-5.31-.43-2.31-.14-5.04-.24-8.55-.26-.51,0-1.05,0-1.59,0-4.59,0-7.92.12-10.67.3-.15.01-.3.02-.44.03-2.84.19-5.11.45-7.63.7-1.68.16-3.47.32-5.57.45-2.8.17-6.14.28-10.57.28-4.97,0-8.58-.14-11.59-.35-3.01-.21-5.37-.47-7.83-.71-1.64-.16-3.32-.31-5.31-.43-2.65-.16-5.84-.27-10.14-.27-4.84,0-8.28.14-11.12.33-2.84.19-5.1.45-7.63.7-1.68.16-3.47.32-5.57.45-2.8.17-6.15.28-10.57.28-4.97,0-8.59-.14-11.59-.35-2.38-.16-4.37-.36-6.31-.56-1-2.41-1.95-4.84-2.84-7.3,1.88.16,3.56.34,5.28.51,1.64.16,3.33.31,5.31.43,2.65.16,5.84.27,10.14.27,4.84,0,8.28-.14,11.11-.33,2.84-.19,5.11-.45,7.63-.7,1.68-.16,3.47-.32,5.57-.45,2.8-.17,6.14-.28,10.57-.28,4.97,0,8.58.14,11.59.35,3.01.21,5.37.47,7.83.71,1.64.16,3.33.31,5.31.43,2.65.16,5.84.27,10.14.27,4.84,0,8.28-.14,11.12-.33,1.83-.12,3.42-.28,5-.43.87-.09,1.73-.18,2.63-.27,1.68-.16,3.47-.32,5.57-.45,2.8-.17,6.15-.28,10.57-.28.9,0,1.75,0,2.57.01,3.69.04,6.56.17,9.02.33,3,.21,5.37.47,7.83.71,1.64.16,3.33.31,5.31.43,2.65.16,5.84.27,10.14.27,4.84,0,8.28-.14,11.12-.33,2.84-.19,5.1-.45,7.63-.7,1.68-.16,3.47-.32,5.57-.45.66-.04,1.36-.07,2.09-.11,2.36-.11,5.11-.17,8.48-.17,4.97,0,8.59.14,11.59.35.28.02.56.04.84.06,2.62.19,4.77.43,7,.65,1.64.16,3.33.31,5.31.43,2.65.16,5.84.27,10.14.27,4.84,0,8.28-.14,11.12-.33,2.84-.19,5.1-.45,7.63-.7,1.68-.16,3.47-.32,5.57-.45,2.8-.17,6.15-.28,10.57-.28,4.97,0,8.59.14,11.59.35,3,.21,5.37.47,7.83.71,1.64.16,3.33.31,5.31.43,2.65.16,5.84.27,10.15.27,4.84,0,8.27-.14,11.11-.33,1.01-.07,1.93-.14,2.83-.22Z"/>
      <path class="cls-8" d="M161.25,244.99c-.04.79-.07,1.64-.09,2.53-.93-.04-1.79-.1-2.62-.15-3.01-.21-5.38-.47-7.83-.71-1.64-.16-3.33-.31-5.31-.43-2.65-.16-5.84-.27-10.14-.27-.33,0-.65,0-.97,0-4.34.01-7.5.14-10.14.32-2.84.19-5.11.45-7.63.7-1.68.16-3.47.32-5.57.45-2.8.17-6.14.28-10.57.28-4.97,0-8.58-.14-11.59-.35-3.01-.21-5.37-.47-7.83-.71-1.64-.16-3.32-.31-5.31-.43-2.65-.16-5.84-.27-10.14-.27-4.84,0-8.28.14-11.12.33-2.84.19-5.1.45-7.63.7-1.68.16-3.47.32-5.57.45-2.8.17-6.15.28-10.57.28-4.07,0-7.22-.09-9.88-.25-1.33-2.39-2.59-4.82-3.79-7.29,1.1.1,2.25.19,3.53.26,2.65.16,5.84.27,10.14.27,4.84,0,8.28-.14,11.11-.33,2.84-.19,5.11-.45,7.63-.7,1.68-.16,3.47-.32,5.57-.45,2.8-.17,6.14-.28,10.57-.28,4.97,0,8.58.14,11.59.35,3.01.21,5.37.47,7.83.71,1.64.16,3.33.31,5.31.43,2.65.16,5.84.27,10.14.27,4.84,0,8.28-.14,11.12-.33,2.84-.19,5.1-.45,7.63-.7,1.68-.16,3.47-.32,5.57-.45,2.8-.17,6.15-.28,10.57-.28h.39c2.51,0,4.67.04,6.58.11,1.72.06,3.23.14,4.62.24,3,.21,5.37.47,7.83.71,1.17.11,2.37.22,3.68.32.21.86.54,1.68,1,2.43.5.83,1.14,1.59,1.9,2.22Z"/>
      <path class="cls-8" d="M316.57,240.6c-1.18,2.4-2.42,4.76-3.72,7.09-1,0-2.06.02-3.19.02-4.97,0-8.59-.14-11.59-.35-3.01-.21-5.38-.47-7.83-.71-1.64-.16-3.33-.31-5.31-.43-2.65-.16-5.84-.27-10.14-.27-4.84,0-8.28.14-11.12.33-2.84.19-5.1.45-7.63.7-1.68.16-3.47.32-5.57.45-2.8.17-6.15.28-10.57.28-4.97,0-8.59-.14-11.59-.35-3.01-.21-5.38-.47-7.83-.71-1.64-.16-3.33-.31-5.31-.43-2.65-.16-5.84-.27-10.14-.27-1.83,0-3.47.02-4.94.05-2.42.06-4.41.16-6.17.28-2.84.19-5.11.45-7.63.7-1.68.16-3.47.32-5.57.45-2.24.14-4.82.23-8.02.27-.02-.9-.05-1.83-.1-2.82.72-.63,1.32-1.36,1.8-2.16.39-.65.69-1.34.9-2.07,2.32-.06,4.25-.15,5.97-.27,2.84-.19,5.1-.45,7.63-.7.14-.01.28-.03.42-.04,1.56-.15,3.22-.29,5.15-.41,1.29-.07,2.69-.14,4.26-.19,1.84-.06,3.92-.09,6.31-.09,4.97,0,8.59.14,11.59.35,3.01.21,5.38.47,7.83.71,1.64.16,3.33.31,5.31.43,2.65.16,5.84.27,10.14.27,4.84,0,8.28-.14,11.12-.33,2.84-.19,5.1-.45,7.63-.7,1.68-.16,3.47-.32,5.57-.45,2.8-.17,6.15-.28,10.57-.28,4.97,0,8.59.14,11.59.35,3,.21,5.37.47,7.83.71,1.64.16,3.33.31,5.31.43,2.65.16,5.84.27,10.15.27,2.69,0,4.95-.04,6.91-.11Z"/>
      <path class="cls-8" d="M160.88,257.98c-.07,1.82-.13,3.66-.19,5.49-.75-.04-1.47-.08-2.15-.13-3.01-.21-5.38-.47-7.83-.71-1.64-.16-3.33-.31-5.31-.43-2.65-.16-5.84-.27-10.14-.27-4.84,0-8.28.14-11.11.33-2.84.19-5.11.45-7.63.7-1.29.12-2.63.25-4.14.35-.46.03-.94.07-1.44.1-2.8.17-6.14.28-10.57.28-4.97,0-8.58-.14-11.59-.35-3.01-.21-5.37-.47-7.83-.71-1.64-.16-3.32-.31-5.31-.43-2.65-.16-5.84-.27-10.14-.27-4.84,0-8.28.14-11.12.33-2.84.19-5.1.45-7.63.7-1.68.16-3.47.32-5.57.45-2.73.17-5.97.28-10.22.28-1.65-2.31-3.23-4.66-4.77-7.05,1.33.03,2.8.04,4.42.04,4.84,0,8.28-.14,11.11-.33,2.84-.19,5.11-.45,7.63-.7,1.68-.16,3.47-.32,5.57-.45,2.8-.17,6.14-.28,10.57-.28,4.97,0,8.58.14,11.59.35s5.37.47,7.83.71c1.64.16,3.33.31,5.31.43,2.65.16,5.84.27,10.14.27,4.84,0,8.28-.14,11.12-.33,2.84-.19,5.1-.45,7.63-.7,1.68-.16,3.45-.32,5.53-.44h0s.04,0,.04,0c2.8-.17,6.15-.28,10.57-.28,3.1,0,5.68.05,7.9.14.53,1.08,1.45,1.96,2.63,2.4.57.22,1.16.33,1.76.33,1.26,0,2.43-.49,3.33-1.37,3.52.56,6.76,1.07,10.02,1.55Z"/>
      <path class="cls-8" d="M307.5,256.68c-1.5,2.34-3.05,4.64-4.67,6.9-1.78-.06-3.34-.14-4.76-.24-3.01-.21-5.38-.47-7.83-.71-1.64-.16-3.33-.31-5.31-.43-2.65-.16-5.84-.27-10.14-.27-4.84,0-8.28.14-11.12.33-2.84.19-5.1.45-7.63.7-1.68.16-3.47.32-5.57.45-2.8.17-6.15.28-10.57.28-4.97,0-8.59-.14-11.59-.35-2.48-.17-4.52-.38-6.53-.58-.43-.05-.87-.09-1.3-.13-1.64-.16-3.33-.31-5.31-.43-2.65-.16-5.84-.27-10.14-.27-4.84,0-8.28.14-11.11.33-2.84.19-5.11.45-7.63.7-1.68.16-3.47.32-5.57.45-2.14.13-4.59.22-7.59.26-.05-1.9-.11-3.81-.16-5.71,3.48-.52,6.9-1.05,9.9-1.53.9.88,2.08,1.37,3.33,1.37.58,0,1.16-.11,1.72-.32,1.02-.38,1.85-1.08,2.39-1.96,1.27-.11,2.63-.22,4.14-.32,2.8-.17,6.15-.28,10.57-.28,1.46,0,2.8.01,4.04.03,3,.05,5.42.17,7.55.31,3.01.21,5.38.47,7.83.71,1.64.16,3.33.31,5.31.43,2.65.16,5.84.27,10.14.27,4.84,0,8.28-.14,11.12-.33,2.84-.19,5.1-.45,7.63-.7,1.68-.16,3.47-.32,5.57-.45,2.8-.17,6.15-.28,10.57-.28,4.97,0,8.59.14,11.59.35,3,.21,5.37.47,7.83.71,1.64.16,3.33.31,5.31.43,2.19.13,4.74.23,7.98.26Z"/>
      <path class="cls-8" d="M160.42,272.42c-.07,2.18-.13,4.35-.19,6.53,0,.16,0,.32-.01.48-.58-.04-1.14-.07-1.67-.11-3.01-.21-5.38-.47-7.83-.71-1.64-.16-3.33-.31-5.31-.43-2.65-.16-5.84-.27-10.14-.27-4.84,0-8.28.14-11.11.33-2.84.19-5.11.45-7.63.7-1.68.16-3.47.32-5.57.45-2.8.17-6.14.28-10.57.28-3.86,0-6.9-.08-9.48-.22-.74-.04-1.44-.08-2.11-.13-3.01-.21-5.37-.47-7.83-.71-1.64-.16-3.32-.31-5.31-.43-2.65-.16-5.84-.27-10.14-.27-4.84,0-8.28.14-11.12.33-2.84.19-5.1.45-7.63.7-1.03.1-2.09.2-3.24.28-1.99-2.18-3.91-4.4-5.77-6.68,1.48-.06,2.79-.13,3.99-.21,2.84-.19,5.11-.45,7.63-.7,1.68-.16,3.47-.32,5.57-.45,2.8-.17,6.14-.28,10.57-.28,4.97,0,8.58.14,11.59.35,3.01.21,5.37.47,7.83.71,1.64.16,3.33.31,5.31.43,2.65.16,5.84.27,10.14.27,3.9,0,6.88-.09,9.37-.22.61-.03,1.19-.07,1.74-.1,2.84-.19,5.1-.45,7.63-.7,1.68-.16,3.47-.32,5.57-.45,2.8-.17,6.15-.28,10.57-.28,4.97,0,8.59.14,11.59.35,3,.21,5.37.47,7.83.71,1.64.16,3.33.31,5.31.43.14,0,.29.02.43.03Z"/>
      <path class="cls-8" d="M296.29,272.16c-1.8,2.21-3.66,4.38-5.58,6.5-.16-.02-.32-.03-.48-.05-1.64-.16-3.33-.31-5.31-.43-2.65-.16-5.84-.27-10.14-.27-4.84,0-8.28.14-11.12.33-2.84.19-5.1.45-7.63.7-1.68.16-3.47.32-5.57.45-1.98.12-4.22.21-6.93.25-1.13.02-2.34.03-3.64.03-4.97,0-8.59-.14-11.59-.35-3.01-.21-5.38-.47-7.83-.71-1.64-.16-3.33-.31-5.31-.43-2.65-.16-5.84-.27-10.14-.27-4.84,0-8.28.14-11.11.33-2.84.19-5.11.45-7.63.7-1.68.16-3.47.32-5.57.45-2.03.12-4.35.21-7.16.26-.02-.59-.03-1.18-.05-1.77,0,0-.07-2.44-.14-5.23,3.22-.04,5.73-.16,7.9-.31,2.84-.19,5.1-.45,7.63-.7,1.68-.16,3.47-.32,5.57-.45,2.8-.17,6.15-.28,10.57-.28,4.97,0,8.59.14,11.59.35,3.01.21,5.38.47,7.83.71.02,0,.04,0,.06,0,1.62.16,3.29.31,5.25.42,2.65.16,5.84.27,10.14.27,4.84,0,8.28-.14,11.12-.33,2.84-.19,5.1-.45,7.63-.7,1.68-.16,3.47-.32,5.57-.45,2.8-.17,6.15-.28,10.57-.28,4.97,0,8.59.14,11.59.35,3,.21,5.37.47,7.83.71.68.07,1.37.13,2.09.19Z"/>
      <path class="cls-8" d="M134.29,286.89l-.78,3.67c-.24,1.11-.47,2.22-.69,3.34-3.6.04-6.34.16-8.68.32-2.84.19-5.11.45-7.63.7-1.68.16-3.47.32-5.57.45-2.8.17-6.14.28-10.57.28-4.97,0-8.58-.14-11.59-.35-1.84-.13-3.45-.28-4.98-.42-.96-.1-1.9-.19-2.85-.28-1.64-.16-3.32-.31-5.31-.43-2.65-.16-5.84-.27-10.14-.27-2.6,0-4.79.04-6.7.1-2.49-2.12-4.92-4.31-7.29-6.58,1.06-.09,2.19-.18,3.43-.25,2.8-.17,6.14-.28,10.57-.28,4.97,0,8.58.14,11.59.35,3.01.21,5.37.47,7.83.71.65.06,1.31.12,1.99.18,1.04.09,2.12.18,3.32.25,2.65.16,5.84.27,10.14.27,4.84,0,8.28-.14,11.12-.33,2.84-.19,5.1-.45,7.63-.7,1.68-.16,3.47-.32,5.57-.45,2.6-.16,5.66-.26,9.6-.28Z"/>
      <path class="cls-8" d="M159.95,288.36c-.07,2.33-.14,4.67-.22,7-.41-.02-.8-.05-1.19-.07-3.01-.21-5.38-.47-7.83-.71-1.64-.16-3.33-.31-5.31-.43-1.78-.11-3.8-.19-6.24-.23-.5-1.1-.97-2.32-1.4-3.67l-1.07-3.36c4.24.02,7.44.16,10.15.34,3,.21,5.37.47,7.83.71,1.63.16,3.3.31,5.27.42Z"/>
      <path class="cls-8" d="M196.98,287.04l-1.03,3.23c-.41,1.29-.89,2.61-1.5,3.91-.18,0-.37.02-.55.04-2.84.19-5.11.45-7.63.7-1.68.16-3.47.32-5.57.45-1.92.12-4.1.21-6.7.25-.07-2.33-.14-4.67-.2-7,3.01-.05,5.39-.16,7.46-.3,2.84-.19,5.1-.45,7.63-.7,1.68-.16,3.47-.32,5.57-.45.8-.05,1.64-.09,2.53-.13Z"/>
      <path class="cls-8" d="M282.61,287.03c-2.45,2.36-4.98,4.65-7.57,6.86h-.27c-4.84,0-8.28.14-11.12.33-2.84.19-5.1.45-7.63.7-1.6.15-3.3.31-5.27.43-.1,0-.2.01-.3.02-2.8.17-6.15.28-10.57.28-4.97,0-8.59-.14-11.59-.35-3.01-.21-5.38-.47-7.83-.71-1.64-.16-3.33-.31-5.31-.43-2.65-.16-5.84-.27-10.14-.27-1.5,0-2.86.01-4.11.04-.23-1.16-.48-2.31-.73-3.46l-.76-3.52c1.66-.04,3.51-.07,5.59-.07,4.97,0,8.59.14,11.59.35,3.01.21,5.38.47,7.83.71,1.64.16,3.33.31,5.31.43,2.65.16,5.84.27,10.14.27,3.06,0,5.57-.05,7.71-.14,1.24-.05,2.36-.11,3.4-.18,2.84-.19,5.1-.45,7.63-.7,1.68-.16,3.47-.32,5.57-.45,2.8-.17,6.15-.28,10.57-.28,3.07,0,5.62.05,7.83.14Z"/>
    </g>
    <path class="cls-14" d="M241.91,167.84c0,8.74-1.49,17.13-4.23,24.94h0c-.83,2.38-1.78,4.7-2.84,6.96h0c-1.42,3.05-3.04,5.97-4.84,8.77,0,0,0,0,0,0-1.48,2.31-3.09,4.53-4.81,6.66-2.37,2.93-4.96,5.68-7.74,8.22-2.63,2.4-5.42,4.62-8.36,6.63-3.39,2.32-6.98,4.37-10.73,6.11-2.92,1.36-5.93,2.53-9.04,3.51-4.78,1.51-9.78,2.55-14.92,3.08.39-.65.69-1.34.9-2.07.15-.55.26-1.12.3-1.69.19-2.43-.67-4.87-2.36-6.68-.18-.19-.37-.38-.57-.55-1.57-1.39-3.64-2.18-5.79-2.18s-4.04.72-5.58,2c-.31.25-.6.52-.86.82-1.68,1.85-2.5,4.31-2.27,6.75.04.41.11.81.21,1.21.21.86.54,1.68,1,2.43-5.94-.57-11.67-1.83-17.13-3.7-2.14-.73-4.24-1.56-6.28-2.47-3.98-1.78-7.78-3.9-11.36-6.31-2.84-1.92-5.55-4.03-8.1-6.31-2.88-2.57-5.57-5.37-8.03-8.36t0,0c-1.8-2.19-3.48-4.48-5.02-6.87,0,0,0,0,0,0-1.86-2.86-3.52-5.84-4.97-8.95h0c-1.08-2.29-2.04-4.64-2.88-7.05h0c-2.73-7.8-4.21-16.18-4.21-24.9,0-41.57,33.7-75.28,75.28-75.28s75.28,33.7,75.28,75.28Z"/>
    <path class="cls-11" d="M275.04,293.89c-26.15,22.27-58.83,32.4-58.83,32.4-20.43,6.33-38.72,7.64-52.29,7.4-40.08-.69-76.72-15.51-105.14-39.7,1.91-.07,4.11-.1,6.7-.1,4.3,0,7.49.11,10.14.27,1.99.12,3.67.27,5.31.43.95.09,1.89.19,2.85.28,1.03-2.25,2.07-4.49,3.1-6.74,1.33-2.89,2.66-5.79,3.99-8.68.74-1.61,1.47-3.21,2.21-4.81h16.22c.13-.76.27-1.49.42-2.19.67-3.23,1.49-5.89,2.18-7.87.15-.44.3-.86.44-1.25,1.28-3.58,2.12-5.5,3.93-6.63,2.47-1.53,4.01-.19,7.88-1.31,0,0,.17-.05.46-.15h0c1.18-.43,4.36-1.79,6.97-4.66,1.27-1.4,2.08-2.86,2.66-4.59.64-1.92.99-4.16,1.36-7.01.1-.74.19-1.53.3-2.36.02-.16.04-.32.06-.48,0,0,.08-.64.84-6.12.25-1.77.57-4.06.98-6.99.24-1.68.5-3.57.8-5.7.17-1.18.32-2.25.47-3.24h0c.43-2.88.79-5.04,1.11-6.98h0c.48-2.88.87-5.31,1.28-8.93h0c.07-.59.13-1.2.2-1.85.07-.7.14-1.37.2-2.03v-.13c.11-1.05.2-2.04.28-2.97h0c.13-1.58.23-2.98.31-4.18l.13-1.66.25-3.09c.22-2.76-.94-5.48-3.15-7.14-.02-.02-.04-.03-.05-.04-2.89-2.16-5.85-2.72-7.36-2.9v-5.81h69.67v4.91c-1.22.2-3.38.74-5.62,2.26-.58.39-1.1.81-1.56,1.23-2.23,2.04-2.48,5.08-2.63,6.48-.44,3.88.08,13.48,2.02,26.09h0c.32,1.94.67,4.09,1.1,6.95h0c.14.94.29,1.94.44,3.04.31,2.2.58,4.14.82,5.86.41,2.93.73,5.2.98,6.97.75,5.36.83,5.99.83,5.99,0,0,0,.01,0,.02.13,1.04.25,2,.36,2.91.37,2.83.72,5.06,1.37,6.97.57,1.71,1.38,3.16,2.64,4.54,2.24,2.46,4.89,3.81,6.34,4.41.68.28,1.1.4,1.1.4,3.86,1.12,5.41-.21,7.88,1.31,1.72,1.07,2.56,2.84,3.74,6.08.2.56.41,1.15.64,1.8.67,1.89,1.44,4.38,2.09,7.41.18.84.36,1.73.52,2.66h16.22c.77,1.67,1.54,3.34,2.3,5.01,1.36,2.95,2.72,5.9,4.07,8.85,1.05,2.28,2.1,4.57,3.15,6.85,1.97-.12,3.67-.28,5.27-.43,2.53-.25,4.79-.5,7.63-.7,2.84-.19,6.28-.33,11.12-.33h.27Z"/>
    <path class="cls-11" d="M142.61,185.32l-.13,1.66c.03-.6.07-1.14.09-1.63.01,0,.03-.02.04-.03Z"/>
    <rect class="cls-9" x="164.55" y="121.01" width="4.81" height="0"/>
    <path class="cls-19" d="M232.56,166.96c-.1.68-.96.95-1.41.43,0,0,0,0-.01-.01-.47-.53-.8-1.05-1.15-1.7-.33-.62-.96-1.86-1.72-4.16-.31-.92-.31-1.04-.76-2.37-.62-1.86-.79-2.17-.94-2.4-.65-1.02-1.55-1.52-2.38-1.96-1.83-.98-3.69-1.3-5.11-1.38-.45-.03-.84.31-.87.76-.04.73-.05,1.54.01,2.42.04.54.1,1.05.17,1.52.06.41-.2.81-.6.91-1.2.31-3.57.65-5.92-.64-.67-.37-2.13-1.31-3.08-3.16-1.05-2.05-.86-4.04-.63-5.13.09-.41.48-.69.89-.64.92.11,1.91.19,2.98.22.62.02,1.23.02,1.8,0,.52-.02.9-.52.77-1.02-.46-1.74-1.1-3.08-1.61-3.98-.4-.71-3.08-5.45-7.43-6.93-1.35-.46-2.66-1.03-4.02-1.47-.54-.17-1.27-.4-2.08-.97-.22-.16-.42-.32-.6-.48-.48-.44-.28-1.24.35-1.4.4-.1.84-.19,1.32-.27.48-.08,2.29-.36,4.81-.15.47.04.35.04,5.38,1.06.21.04,1.69.34,3.56.95,1.34.43,1.96.73,2.48,1.31.41.47.58.93.93,1.87.57,1.57.32,1.71.78,2.87.2.49.11.14,1.69,2.72.27.44.52.86,1.05,1.15.14.08.71.38,1.35.23.31-.07.46-.2.67-.33.97-.57,2.19-.29,2.65-.18.73.17,1.28.49,1.64.75.14.1.3.15.48.15.2,0,.45.02.71.08.46.1.81.27,1.04.41-.38-.05-.98-.07-1.65.16-.6.21-1.01.53-1.41.89-1.11,1-1.74,1.82-2.13,2.26-.62.7-1.65,1.55-3.41,2.16,1.97-.54,3.13-1.36,3.83-2.03.28-.27.45-.47.84-.74.95-.65,2.5-1.18,3.64-.53.15.09.26.18.35.25,1.7,1.5,2.32,5.84,2.44,6.73.42,3.09.63,4.63.66,5.57.06,1.62.02,3.72-.33,6.18Z"/>
    <path class="cls-19" d="M131.05,191.31c-.1.68-.96.95-1.41.43,0,0,0,0-.01-.01-.47-.53-.8-1.05-1.15-1.7-.33-.62-.96-1.86-1.72-4.16-.31-.92-.31-1.04-.76-2.37-.62-1.86-.79-2.17-.94-2.4-.65-1.02-1.55-1.52-2.38-1.96-1.83-.98-3.69-1.3-5.11-1.38-.45-.03-.84.31-.87.76-.04.73-.05,1.54.01,2.42.04.54.1,1.05.17,1.52.06.41-.2.81-.6.91-1.2.31-3.57.65-5.92-.64-.67-.37-2.13-1.31-3.08-3.16-1.05-2.05-.86-4.04-.63-5.13.09-.41.48-.69.89-.64.92.11,1.91.19,2.98.22.62.02,1.23.02,1.8,0,.52-.02.9-.52.77-1.02-.46-1.74-1.1-3.08-1.61-3.98-.4-.71-3.08-5.45-7.43-6.93-1.35-.46-2.66-1.03-4.02-1.47-.54-.17-1.27-.4-2.08-.97-.22-.16-.42-.32-.6-.48-.48-.44-.28-1.24.35-1.4.4-.1.84-.19,1.32-.27.48-.08,2.29-.36,4.81-.15.47.04.35.04,5.38,1.06.21.04,1.69.34,3.56.95,1.34.43,1.96.73,2.48,1.31.41.47.58.93.93,1.87.57,1.57.32,1.71.78,2.87.2.49.11.14,1.69,2.72.27.44.52.86,1.05,1.15.14.08.71.38,1.35.23.31-.07.46-.2.67-.33.97-.57,2.19-.29,2.65-.18.73.17,1.28.49,1.64.75.14.1.3.15.48.15.2,0,.45.02.71.08.46.1.81.27,1.04.41-.38-.05-.98-.07-1.65.16-.6.21-1.01.53-1.41.89-1.11,1-1.74,1.82-2.13,2.26-.62.7-1.65,1.55-3.41,2.16,1.97-.54,3.13-1.36,3.83-2.03.28-.27.45-.47.84-.74.95-.65,2.5-1.18,3.64-.53.15.09.26.18.35.25,1.7,1.5,2.32,5.84,2.44,6.73.42,3.09.63,4.63.66,5.57.06,1.62.02,3.72-.33,6.18Z"/>
    <g>
      <path class="cls-1" d="M169.26,6.43v76.57h-4.81V6.43c.8-.01,1.6-.02,2.41-.02s1.61,0,2.41.02Z"/>
      <path class="cls-31" d="M205.75,26.51l-14.91,59.09-4.65-1.25,16.8-58.56c.92.23,1.84.47,2.76.73Z"/>
      <path class="cls-23" d="M247.47,28.05l-38.46,66.83-4.22-2.32,38.48-66.87c1.41.76,2.81,1.54,4.2,2.35Z"/>
      <polygon class="cls-34" points="222.59 103.97 263.53 58.16 265.81 60.14 226.23 107.12 222.59 103.97"/>
      <path class="cls-27" d="M300.42,77.68l-60.15,44.68-2.85-3.88,60.26-44.76c.94,1.3,1.85,2.62,2.74,3.96Z"/>
      <path class="cls-22" d="M304.55,118.82l-55.64,22.23-1.72-4.49,56.33-20.58c.35.95.7,1.89,1.03,2.84Z"/>
      <path class="cls-30" d="M326.81,151.3l-73.64,10.02-.65-4.77,73.74-10.04c.21,1.59.39,3.19.54,4.78Z"/>
      <path class="cls-17" d="M147.52,84.35l-4.65,1.25-14.91-59.09c.92-.25,1.83-.49,2.76-.73h0l16.79,58.57Z"/>
      <path class="cls-33" d="M128.92,92.57l-4.22,2.32L86.31,28.01c1.39-.81,2.79-1.59,4.21-2.35l38.41,66.91Z"/>
      <polygon class="cls-18" points="107.49 107.12 67.9 60.14 70.18 58.16 111.12 103.97 107.49 107.12"/>
      <path class="cls-4" d="M96.29,118.48l-2.85,3.88-60.15-44.67c.89-1.33,1.8-2.66,2.74-3.96l60.26,44.75Z"/>
      <path class="cls-12" d="M86.53,136.56l-1.72,4.49-55.64-22.23c.33-.95.67-1.9,1.02-2.84l56.34,20.58Z"/>
      <path class="cls-7" d="M81.18,156.55l-.65,4.77-73.64-10.02c.15-1.6.33-3.19.54-4.78l73.74,10.04Z"/>
    </g>
    <g>
      <path class="cls-29" d="M142.47,186.98c-.08,1.19-.18,2.6-.31,4.17h0c-.07.94-.16,1.93-.26,2.98l.57-7.15Z"/>
      <path class="cls-11" d="M190.81,160.34v-9.48h-3.24v-14.13h6.7c.61-1.51.65-1.61,1.27-3.11-8.55-8.35-17.1-16.7-25.65-25.04h-.32l-2.31-13.64h-.79l-2.31,13.64h-.37c-9.6,9.6-15.08,15.08-24.67,24.67v3.49h7.24v14.13h-3.24v9.48h-11.37v3.68h70.45v-3.68h-11.37ZM169.69,150.86h-6v-7.69c0-1.68,1.37-3.13,3.05-3.1.81.01,1.54.35,2.07.88.54.55.88,1.29.88,2.12v7.79ZM178.64,150.86v-7.69c0-1.67,1.37-3.12,3.04-3.1.81,0,1.55.34,2.09.88.54.55.88,1.29.88,2.12v7.79h-6ZM148.74,143.17c0-1.67,1.37-3.12,3.04-3.1.81,0,1.55.34,2.09.88.54.55.88,1.29.88,2.12v7.79h-6v-7.69Z"/>
    </g>
  </g>
</svg>